<svg width="200" height="60" viewBox="0 0 200 60" fill="none" xmlns="http://www.w3.org/2000/svg">
  <!-- Background shape -->
  <path d="M30 10C30 4.47715 34.4772 0 40 0H50C55.5228 0 60 4.47715 60 10V50C60 55.5228 55.5228 60 50 60H40C34.4772 60 30 55.5228 30 50V10Z" fill="#4f46e5"/>
  
  <!-- S letter -->
  <path d="M42 15C39.8 15 38 15.8 36.6 17.4C35.2 19 34.5 21 34.5 23.5H39.5C39.5 22.3 39.8 21.4 40.4 20.8C41 20.2 41.8 19.9 42.8 19.9C43.8 19.9 44.6 20.2 45.2 20.8C45.8 21.4 46.1 22.2 46.1 23.2C46.1 24.2 45.8 25 45.2 25.6C44.6 26.2 43.8 26.5 42.8 26.5H40.5V31.5H42.8C44 31.5 45 31.8 45.8 32.4C46.6 33 47 33.9 47 35.1C47 36.3 46.6 37.2 45.8 37.8C45 38.4 44 38.7 42.8 38.7C41.6 38.7 40.6 38.4 39.8 37.8C39 37.2 38.6 36.3 38.6 35.1H33.6C33.6 37.7 34.4 39.8 36 41.4C37.6 43 39.6 43.8 42 43.8C44.4 43.8 46.4 43 48 41.4C49.6 39.8 50.4 37.7 50.4 35.1C50.4 33.3 49.9 31.8 48.9 30.6C47.9 29.4 46.6 28.6 45 28.2C46.2 27.8 47.2 27.1 47.9 26.1C48.6 25.1 49 23.9 49 22.5C49 20.3 48.3 18.5 46.9 17.1C45.5 15.7 43.8 15 42 15Z" fill="white"/>
  
  <!-- Text part -->
  <path d="M75.568 38.432C73.968 38.432 72.544 38.096 71.296 37.424C70.048 36.736 69.072 35.776 68.368 34.544C67.68 33.296 67.336 31.856 67.336 30.224C67.336 28.592 67.68 27.16 68.368 25.928C69.072 24.68 70.048 23.72 71.296 23.048C72.544 22.36 73.968 22.016 75.568 22.016C77.168 22.016 78.592 22.36 79.84 23.048C81.088 23.72 82.056 24.68 82.744 25.928C83.448 27.16 83.8 28.592 83.8 30.224C83.8 31.856 83.448 33.296 82.744 34.544C82.056 35.776 81.088 36.736 79.84 37.424C78.592 38.096 77.168 38.432 75.568 38.432ZM75.568 34.832C76.624 34.832 77.488 34.48 78.16 33.776C78.848 33.056 79.192 31.952 79.192 30.464V30.008C79.192 28.52 78.848 27.424 78.16 26.72C77.488 26 76.624 25.64 75.568 25.64C74.512 25.64 73.64 26 72.952 26.72C72.28 27.424 71.944 28.52 71.944 30.008V30.464C71.944 31.952 72.28 33.056 72.952 33.776C73.64 34.48 74.512 34.832 75.568 34.832ZM86.6238 38V22.448H91.0398V38H86.6238ZM88.8318 20.72C87.9678 20.72 87.2638 20.472 86.7198 19.976C86.1918 19.464 85.9278 18.832 85.9278 18.08C85.9278 17.328 86.1918 16.704 86.7198 16.208C87.2638 15.696 87.9678 15.44 88.8318 15.44C89.6958 15.44 90.3918 15.688 90.9198 16.184C91.4638 16.664 91.7358 17.28 91.7358 18.032C91.7358 18.816 91.4638 19.464 90.9198 19.976C90.3918 20.472 89.6958 20.72 88.8318 20.72ZM101.666 38.432C100.114 38.432 98.7461 38.096 97.5621 37.424C96.3781 36.736 95.4501 35.776 94.7781 34.544C94.1221 33.296 93.7941 31.856 93.7941 30.224C93.7941 28.592 94.1301 27.16 94.8021 25.928C95.4901 24.68 96.4341 23.72 97.6341 23.048C98.8341 22.36 100.21 22.016 101.762 22.016C103.25 22.016 104.562 22.336 105.698 22.976C106.85 23.616 107.738 24.536 108.362 25.736C108.986 26.92 109.298 28.32 109.298 29.936V31.112H97.9781V28.304H105.17C105.17 27.44 104.938 26.76 104.474 26.264C104.01 25.768 103.378 25.52 102.578 25.52C101.746 25.52 101.074 25.784 100.562 26.312C100.066 26.824 99.8181 27.528 99.8181 28.424V31.496C99.8181 32.44 100.066 33.176 100.562 33.704C101.074 34.232 101.778 34.496 102.674 34.496C103.282 34.496 103.826 34.376 104.306 34.136C104.786 33.896 105.154 33.544 105.41 33.08L109.13 33.368C108.762 34.872 107.962 36.04 106.73 36.872C105.514 37.704 103.954 38.432 101.666 38.432ZM118.118 38.432C116.566 38.432 115.198 38.096 114.014 37.424C112.83 36.736 111.902 35.776 111.23 34.544C110.574 33.296 110.246 31.856 110.246 30.224C110.246 28.592 110.582 27.16 111.254 25.928C111.942 24.68 112.886 23.72 114.086 23.048C115.286 22.36 116.662 22.016 118.214 22.016C119.702 22.016 121.014 22.336 122.15 22.976C123.302 23.616 124.19 24.536 124.814 25.736C125.438 26.92 125.75 28.32 125.75 29.936V31.112H114.43V28.304H121.622C121.622 27.44 121.39 26.76 120.926 26.264C120.462 25.768 119.83 25.52 119.03 25.52C118.198 25.52 117.526 25.784 117.014 26.312C116.518 26.824 116.27 27.528 116.27 28.424V31.496C116.27 32.44 116.518 33.176 117.014 33.704C117.526 34.232 118.23 34.496 119.126 34.496C119.734 34.496 120.278 34.376 120.758 34.136C121.238 33.896 121.606 33.544 121.862 33.08L125.582 33.368C125.214 34.872 124.414 36.04 123.182 36.872C121.966 37.704 120.406 38.432 118.118 38.432ZM127.745 38V22.448H132.161V24.848H132.329C132.649 24.016 133.145 23.368 133.817 22.904C134.489 22.44 135.281 22.208 136.193 22.208C136.433 22.208 136.689 22.224 136.961 22.256C137.233 22.288 137.473 22.328 137.681 22.376V26.384C137.441 26.32 137.113 26.264 136.697 26.216C136.281 26.168 135.905 26.144 135.569 26.144C134.929 26.144 134.353 26.28 133.841 26.552C133.345 26.808 132.953 27.176 132.665 27.656C132.377 28.136 132.233 28.696 132.233 29.336V38H127.745ZM146.672 38.432C145.12 38.432 143.752 38.096 142.568 37.424C141.384 36.736 140.456 35.776 139.784 34.544C139.128 33.296 138.8 31.856 138.8 30.224C138.8 28.592 139.136 27.16 139.808 25.928C140.496 24.68 141.44 23.72 142.64 23.048C143.84 22.36 145.216 22.016 146.768 22.016C148.256 22.016 149.568 22.336 150.704 22.976C151.856 23.616 152.744 24.536 153.368 25.736C153.992 26.92 154.304 28.32 154.304 29.936V31.112H142.984V28.304H150.176C150.176 27.44 149.944 26.76 149.48 26.264C149.016 25.768 148.384 25.52 147.584 25.52C146.752 25.52 146.08 25.784 145.568 26.312C145.072 26.824 144.824 27.528 144.824 28.424V31.496C144.824 32.44 145.072 33.176 145.568 33.704C146.08 34.232 146.784 34.496 147.68 34.496C148.288 34.496 148.832 34.376 149.312 34.136C149.792 33.896 150.16 33.544 150.416 33.08L154.136 33.368C153.768 34.872 152.968 36.04 151.736 36.872C150.52 37.704 148.96 38.432 146.672 38.432ZM162.299 38.432C160.747 38.432 159.379 38.096 158.195 37.424C157.011 36.736 156.083 35.776 155.411 34.544C154.755 33.296 154.427 31.856 154.427 30.224C154.427 28.592 154.763 27.16 155.435 25.928C156.123 24.68 157.067 23.72 158.267 23.048C159.467 22.36 160.843 22.016 162.395 22.016C163.883 22.016 165.195 22.336 166.331 22.976C167.483 23.616 168.371 24.536 168.995 25.736C169.619 26.92 169.931 28.32 169.931 29.936V31.112H158.611V28.304H165.803C165.803 27.44 165.571 26.76 165.107 26.264C164.643 25.768 164.011 25.52 163.211 25.52C162.379 25.52 161.707 25.784 161.195 26.312C160.699 26.824 160.451 27.528 160.451 28.424V31.496C160.451 32.44 160.699 33.176 161.195 33.704C161.707 34.232 162.411 34.496 163.307 34.496C163.915 34.496 164.459 34.376 164.939 34.136C165.419 33.896 165.787 33.544 166.043 33.08L169.763 33.368C169.395 34.872 168.595 36.04 167.363 36.872C166.147 37.704 164.587 38.432 162.299 38.432ZM178.926 38.432C177.374 38.432 176.006 38.096 174.822 37.424C173.638 36.736 172.71 35.776 172.038 34.544C171.382 33.296 171.054 31.856 171.054 30.224C171.054 28.592 171.39 27.16 172.062 25.928C172.75 24.68 173.694 23.72 174.894 23.048C176.094 22.36 177.47 22.016 179.022 22.016C180.51 22.016 181.822 22.336 182.958 22.976C184.11 23.616 184.998 24.536 185.622 25.736C186.246 26.92 186.558 28.32 186.558 29.936V31.112H175.238V28.304H182.43C182.43 27.44 182.198 26.76 181.734 26.264C181.27 25.768 180.638 25.52 179.838 25.52C179.006 25.52 178.334 25.784 177.822 26.312C177.326 26.824 177.078 27.528 177.078 28.424V31.496C177.078 32.44 177.326 33.176 177.822 33.704C178.334 34.232 179.038 34.496 179.934 34.496C180.542 34.496 181.086 34.376 181.566 34.136C182.046 33.896 182.414 33.544 182.67 33.08L186.39 33.368C186.022 34.872 185.222 36.04 183.99 36.872C182.774 37.704 181.214 38.432 178.926 38.432Z" fill="#0f172a"/>
</svg>